HIERARCHY
ROOT Hips
{
	OFFSET 0.00 0.00 0.00
	CHANNELS 6 Xposition Yposition Zposition Xrotation Yrotation Zrotation
	JOINT LeftUpLeg
	{
		OFFSET 3.34807 0.00000 0.00000
		CHANNELS 3 Xrotation Yrotation Zrotation
		JOINT LeftLeg
		{
			OFFSET 0.00000 -16.98552 0.00000
			CHANNELS 3 Xrotation Yrotation Zrotation
			JOINT LeftFoot
			{
				OFFSET 0.00000 -16.83686 0.00000
				CHANNELS 3 Xrotation Yrotation Zrotation
				JOINT LeftToeBase
				{
					OFFSET 0.00000 -1.59599 5.95633
					CHANNELS 3 Xrotation Yrotation Zrotation
					End Site
					{
						OFFSET 0.00000 0.00000 2.95275
					}
				}
			}
		}
	}
	JOINT RightUpLeg
	{
		OFFSET -3.34807 0.00000 0.00000
		CHANNELS 3 Xrotation Yrotation Zrotation
		JOINT RightLeg
		{
			OFFSET 0.00000 -16.98552 0.00000
			CHANNELS 3 Xrotation Yrotation Zrotation
			JOINT RightFoot
			{
				OFFSET 0.00000 -16.83686 0.00000
				CHANNELS 3 Xrotation Yrotation Zrotation
				JOINT RightToeBase
				{
					OFFSET 0.00000 -1.59599 5.95633
					CHANNELS 3 Xrotation Yrotation Zrotation
					End Site
					{
						OFFSET 0.00000 0.00000 2.95275
					}
				}
			}
		}
	}
	JOINT Spine
	{
		OFFSET 0.00000 0.03937 0.00000
		CHANNELS 3 Xrotation Yrotation Zrotation
		JOINT Spine1
		{
			OFFSET 0.00000 7.93124 0.00000
			CHANNELS 3 Xrotation Yrotation Zrotation
			JOINT Neck
			{
				OFFSET 0.00000 8.48368 0.00000
				CHANNELS 3 Xrotation Yrotation Zrotation
				JOINT Head
				{
					OFFSET 0.00000 6.65077 0.00000
					CHANNELS 3 Xrotation Yrotation Zrotation
					End Site
					{
						OFFSET 0.00000 4.52755 0.00000
					}
				}
			}
			JOINT LeftShoulder
			{
				OFFSET 0.00000 8.48368 0.00000
				CHANNELS 3 Xrotation Yrotation Zrotation
				JOINT LeftArm
				{
					OFFSET 7.74502 -0.00003 0.00000
					CHANNELS 3 Xrotation Yrotation Zrotation
					JOINT LeftForeArm
					{
						OFFSET 12.49824 -0.00005 0.00000
						CHANNELS 3 Xrotation Yrotation Zrotation
						JOINT LeftHand
						{
							OFFSET 9.88337 -0.00004 0.00000
							CHANNELS 3 Xrotation Yrotation Zrotation
							JOINT LeftHandThumb
							{
								OFFSET 0.00000 0.00000 0.00000
								CHANNELS 3 Xrotation Yrotation Zrotation
								End Site
								{
									OFFSET 0.00000 0.00000 3.93700
								}
							}
							JOINT L_Wrist_End
							{
								OFFSET 3.93700 -0.00001 0.00000
								CHANNELS 3 Xrotation Yrotation Zrotation
							}
						}
					}
				}
			}
			JOINT RightShoulder
			{
				OFFSET 0.00000 8.48368 0.00000
				CHANNELS 3 Xrotation Yrotation Zrotation
				JOINT RightArm
				{
					OFFSET -7.74502 -0.00003 0.00000
					CHANNELS 3 Xrotation Yrotation Zrotation
					JOINT RightForeArm
					{
						OFFSET -12.49824 -0.00005 0.00000
						CHANNELS 3 Xrotation Yrotation Zrotation
						JOINT RightHand
						{
							OFFSET -9.88337 -0.00004 0.00000
							CHANNELS 3 Xrotation Yrotation Zrotation
							JOINT RightHandThumb
							{
								OFFSET 0.00000 0.00000 0.00000
								CHANNELS 3 Xrotation Yrotation Zrotation
								End Site
								{
									OFFSET 0.00000 0.00000 3.93700
								}
							}
							JOINT R_Wrist_End
							{
								OFFSET -5.39369 -0.00002 0.00000
								CHANNELS 3 Xrotation Yrotation Zrotation
							}
						}
					}
				}
			}
		}
	}
}
MOTION
Frames: 11
Frame Time: 0.033332
 -72.0476 35.9380 -6.3942 38.1317 79.9565 -43.4464 10.3187 23.8149 9.7786 10.4170 -0.0000 0.0000 7.8766 -16.2139 0.2291 -44.3772 0.0000 -0.0000 -19.4670 -3.0448 2.3853 13.3493 0.0000 0.0000 6.1673 -0.8513 10.7622 -15.3854 0.0000 -0.0000 -2.2141 -2.4521 -0.8445 13.0547 -5.6588 4.6269 -10.6853 10.6025 4.9098 -9.7719 -7.5104 -1.8934 -11.4578 19.9875 24.7998 -0.8985 -27.6774 -91.6122 -0.0002 -37.1047 -0.0001 -13.8935 -36.1478 28.9381 -0.0000 0.0000 -0.0000 -0.0000 0.0000 -0.0000 15.7429 -14.2188 -6.8027 -34.6926 39.2821 94.5643 -0.0000 2.9028 0.0000 95.7058 -69.4064 -98.0437 -0.0000 0.0000 -0.0000 -0.0000 0.0000 -0.0000
 -70.6512 35.7429 -5.9037 35.9928 80.8054 -41.6491 11.1094 22.2060 11.1315 13.7756 -0.0000 0.0000 9.8080 -14.3212 -3.4495 -46.7479 0.0000 -0.0000 -19.1965 -5.1147 3.5710 19.3900 -0.0000 0.0000 3.6931 -1.1201 4.1641 -12.8846 0.0000 0.0000 -2.8123 -2.7445 -1.0907 13.7459 -5.6280 5.5428 -10.3167 10.7655 5.0293 -9.2272 -7.6585 -2.1791 -11.3387 19.9268 25.1753 -0.4914 -28.2360 -91.9203 -0.0002 -38.2258 -0.0001 -14.8727 -36.6405 28.8875 -0.0000 0.0000 -0.0000 -0.0000 0.0000 -0.0000 15.9992 -14.1843 -6.7456 -34.6184 39.6155 94.5891 -0.0000 1.5013 0.0000 93.7614 -68.6828 -98.8200 -0.0000 0.0000 -0.0000 -0.0000 0.0000 -0.0000
 -69.0961 35.5126 -5.4051 32.3299 81.9895 -38.2251 11.0349 20.4346 12.6583 19.5278 -0.0000 0.0000 12.9479 -12.0647 -1.8532 -51.1129 0.0000 0.0000 -17.5951 -4.9682 4.3342 24.1400 0.0000 0.0000 -1.7957 -3.3637 3.2018 -11.9199 0.0000 0.0000 -3.1985 -2.9913 -0.8674 13.9771 -5.7432 6.0316 -9.8412 10.6345 4.6368 -8.1679 -7.5685 -2.2880 -11.2427 20.1268 25.3004 0.6475 -29.2981 -91.4973 -0.0002 -39.1549 -0.0001 -16.2367 -37.1615 28.2009 -0.0000 0.0000 -0.0000 -0.0000 0.0000 -0.0000 16.2348 -14.3585 -7.0416 -34.0861 39.8915 94.8325 -0.0000 1.1780 0.0000 92.0378 -68.0117 -100.0649 -0.0000 0.0000 -0.0000 -0.0000 0.0000 -0.0000
 -67.5026 35.2645 -4.9369 27.8241 83.3394 -33.9254 9.2522 18.6760 14.4961 28.2900 0.0000 0.0000 16.1479 -9.0625 -1.0221 -49.8847 0.0000 0.0000 -14.4802 -5.1664 4.5590 26.2941 -0.0000 0.0000 -6.5355 -2.5619 3.5304 -11.8698 -0.0000 0.0000 -3.5692 -2.9589 -0.1759 14.1282 -5.8220 6.0354 -9.0045 10.3278 4.1596 -7.9520 -7.6239 -2.8440 -10.8872 20.3281 25.0409 1.9966 -30.8403 -90.2474 -0.0002 -40.4406 -0.0001 -15.7622 -36.8293 27.2603 -0.0000 0.0000 -0.0000 -0.0000 0.0000 -0.0000 16.7537 -14.6430 -7.2390 -33.2645 40.1524 94.8374 -0.0000 2.0784 0.0000 90.5243 -67.2853 -100.9043 -0.0000 0.0000 -0.0000 -0.0000 0.0000 -0.0000
 -66.0067 35.1249 -4.5305 20.6403 84.6244 -27.7136 5.8768 16.5840 17.0809 39.0827 -0.0000 0.0000 18.3291 -4.9860 -6.3334 -37.1604 -0.0000 0.0000 -9.8433 -7.4504 5.3774 25.6244 -0.0000 0.0000 -9.2516 -0.4851 3.8868 -12.0343 -0.0000 -0.0000 -3.2967 -2.7489 1.3259 13.8743 -5.7867 5.9652 -8.0084 10.0942 3.7613 -8.2996 -7.7296 -3.5825 -10.3200 20.9493 24.7761 3.1549 -32.3685 -89.0519 -0.0002 -41.6249 -0.0001 -14.7196 -37.0492 28.4685 -0.0000 0.0000 -0.0000 -0.0000 0.0000 -0.0000 17.5737 -14.5895 -7.3391 -32.7085 40.1894 94.6409 -0.0000 2.9868 0.0000 88.4025 -66.1494 -102.1361 -0.0000 0.0000 -0.0000 -0.0000 0.0000 -0.0000
 -64.6643 35.2165 -4.1719 14.4773 84.9467 -22.5488 1.1070 14.7156 19.2164 49.0431 -0.0000 0.0000 20.3780 0.7267 -9.7015 -12.1569 0.0000 0.0000 -5.5490 -9.0123 6.5931 23.6119 0.0000 0.0000 -9.2349 1.1122 3.7975 -12.6999 0.0000 0.0000 -3.1900 -2.4195 2.3197 13.8655 -5.3953 6.2581 -7.8791 10.0146 3.9654 -8.0625 -7.5715 -4.6137 -10.0970 22.1427 24.9205 4.4456 -33.0973 -88.5312 -0.0002 -42.5769 -0.0001 -12.9537 -37.2713 29.5664 -0.0000 0.0000 -0.0000 -0.0000 0.0000 -0.0000 18.0221 -14.0908 -7.6394 -33.1979 40.2559 94.8499 -0.0000 2.8697 0.0000 86.9608 -65.1482 -102.6454 -0.0000 0.0000 -0.0000 -0.0000 0.0000 -0.0000
 -63.4559 35.5110 -3.9409 12.3587 84.6926 -19.9473 -4.1211 13.0475 18.8528 56.7469 -0.0000 0.0000 19.0805 3.9695 -1.4172 -11.8032 0.0000 -0.0000 -2.3114 -8.2376 6.5274 20.9420 0.0000 0.0000 -7.3359 1.1138 4.1003 -14.2663 0.0000 -0.0000 -2.8915 -1.9328 2.1957 13.4138 -4.9490 6.0667 -7.7120 10.0167 3.8305 -8.1584 -7.4422 -4.8875 -9.7098 23.1321 24.9768 6.1733 -32.8679 -88.2332 -0.0002 -43.2129 -0.0001 -12.2312 -37.4623 30.3235 -0.0000 0.0000 -0.0000 -0.0000 0.0000 -0.0000 17.0933 -13.9085 -8.2322 -33.9634 40.2483 95.8281 -0.0000 1.7752 0.0000 87.3678 -65.2622 -102.3774 -0.0000 0.0000 -0.0000 -0.0000 0.0000 -0.0000
 -62.2892 35.9234 -3.8275 11.2398 84.6215 -18.0383 -9.0383 11.3859 17.2284 61.2751 0.0000 0.0000 9.8912 6.5566 1.6727 -10.7160 0.0000 0.0000 0.9547 -6.9170 6.0493 17.5275 -0.0000 0.0000 -3.8462 0.3855 4.6685 -16.6023 0.0000 -0.0000 -2.4818 -1.5345 2.1241 13.1584 -4.8066 5.4214 -7.5194 10.0334 3.6000 -8.5312 -7.3148 -4.8923 -9.2651 23.9455 24.9538 7.9620 -33.0277 -87.8479 -0.0002 -43.2004 -0.0001 -12.7763 -37.5267 29.9561 -0.0000 0.0000 -0.0000 -0.0000 0.0000 -0.0000 15.7570 -13.7737 -8.9763 -34.6415 40.3306 96.9601 -0.0000 1.9656 0.0000 88.6150 -65.1272 -100.9859 -0.0000 0.0000 -0.0000 -0.0000 0.0000 -0.0000
 -61.1728 36.3592 -3.7954 11.5231 84.8141 -17.6001 -13.9331 9.7136 15.1808 62.2763 -0.0000 0.0000 5.0866 7.2283 2.5559 -9.3075 -0.0000 -0.0000 3.9846 -6.3429 5.3921 14.2389 0.0000 -0.0000 0.7149 -0.0640 5.7279 -19.8555 0.0000 0.0000 -1.9008 -1.1286 2.3088 12.9833 -4.7397 4.5829 -9.4087 7.8890 3.3848 -6.2420 -7.9763 -5.2899 -8.7563 24.3347 24.6002 9.4843 -33.8284 -87.1828 -0.0002 -42.3256 -0.0001 -13.5394 -37.3913 28.4008 -0.0000 0.0000 -0.0000 -0.0000 0.0000 -0.0000 14.6559 -13.6000 -9.5416 -35.3048 39.8379 97.7460 -0.0000 2.6019 0.0000 89.0647 -64.9018 -100.1970 -0.0000 0.0000 -0.0000 -0.0000 0.0000 -0.0000
 -60.0733 36.6884 -3.7787 11.8680 84.8908 -17.3082 -18.2230 8.3055 13.1657 59.6882 -0.0000 0.0000 2.9749 5.0111 2.9292 -10.1451 -0.0000 0.0000 6.3742 -6.7554 4.6126 12.0262 -0.0000 0.0000 5.2062 0.7633 6.4819 -25.1245 -0.0000 -0.0000 -1.4560 -0.5792 2.5190 13.2094 -4.5731 3.6172 -9.5277 7.8827 3.5012 -6.8171 -8.3818 -5.9225 -8.5172 24.4900 24.4786 10.3066 -35.2240 -86.6818 -0.0002 -40.3670 -0.0001 -13.6010 -36.4420 25.5370 -0.0000 0.0000 -0.0000 -0.0000 0.0000 -0.0000 12.8687 -13.0861 -10.0934 -35.0878 38.7727 98.0897 -0.0000 3.7328 0.0000 86.2419 -79.6857 -97.1350 -0.0000 0.0000 -0.0000 -0.0000 0.0000 -0.0000
 -59.0044 36.8379 -3.7387 14.6028 84.8730 -19.5924 -21.9048 7.0798 11.5977 53.9146 -0.0000 0.0000 0.2845 1.9602 3.4384 -11.4876 -0.0000 -0.0000 8.0147 -7.2902 3.9822 11.0816 -0.0000 0.0000 7.7225 1.8340 7.1843 -27.9135 -0.0000 0.0000 -0.9646 -0.1585 2.5673 13.2974 -4.3884 2.9739 -9.7418 7.6729 3.2668 -7.1114 -8.5552 -5.9723 -8.3126 24.4527 24.0686 11.2240 -36.6463 -85.7344 -0.0002 -38.2938 -0.0001 -13.5555 -35.0662 23.3397 -0.0000 -0.0000 0.0000 -0.0000 -0.0000 0.0000 11.5528 -12.0969 -10.5766 -35.3822 34.0620 98.1534 -0.0000 3.4436 0.0000 81.4794 -78.9959 -106.6829 -0.0000 0.0000 -0.0000 -0.0000 0.0000 -0.0000
